# xmcd
#
# Track frame offsets:
#	150
#	35995
#	76320
#	106267
#	143842
#	186337
#	258292
#
# Disc length: 3862 seconds
#
# Revision: 1
# Processed by: cddbd v1.5.1PL0 Copyright (c) Steve Scherf et al.
# Submitted via: EasyCDDAExtractor 5.1.0
#
DISCID=5d0f1407
DTITLE=Huong Lan and Thanh Huyen - Tan Co Giao Duyen 2
DYEAR=1900
DGENRE=Blues
TTITLE0=Ruoc Tinh Ve Voi
TTITLE1=Mai Chi Ve
TTITLE2=Ngay Hanh Psuc
TTITLE3=Con Gai Cua Me
TTITLE4=Kin Trong Ngo Thuy Van
TTITLE5=Tu Hai Biet Thuy Kieu
TTITLE6=Mua Lanh
EXTD=
EXTT0=
EXTT1=
EXTT2=
EXTT3=
EXTT4=
EXTT5=
EXTT6=
PLAYORDER=
